<svg width="36" height="36" viewBox="0 0 36 36" fill="none" xmlns="http://www.w3.org/2000/svg">
<path d="M21.4402 13.1529V18.1416H26.1759C26.5402 18.1416 26.7223 18.4856 26.7223 18.8296L25.9937 22.0981C25.9937 22.2701 25.6294 22.4421 25.4473 22.4421H21.4402V34.9999H15.9759V22.6142H12.8794C12.5152 22.6142 12.333 22.4421 12.333 22.0981V18.8296C12.333 18.4856 12.5152 18.3136 12.8794 18.3136H15.9759V12.6368C15.9759 9.71238 18.3437 7.47607 21.4402 7.47607H26.358C26.7223 7.47607 26.9044 7.6481 26.9044 7.99215V12.1207C26.9044 12.4648 26.7223 12.6368 26.358 12.6368H21.9866C21.6223 12.6368 21.4402 12.8088 21.4402 13.1529Z" stroke="white" stroke-width="2" stroke-miterlimit="10" stroke-linecap="round"/>
<path d="M23.1 35H12.9C4.4 35 1 31.6 1 23.1V12.9C1 4.4 4.4 1 12.9 1H23.1C31.6 1 35 4.4 35 12.9V23.1C35 31.6 31.6 35 23.1 35Z" stroke="white" stroke-width="2" stroke-linecap="round" stroke-linejoin="round"/>
</svg>
