<svg width="52" height="24" viewBox="0 0 52 24" fill="black" xmlns="http://www.w3.org/2000/svg">
<path id="path5310" opacity="1" d="M12.1469 6.39449e-06C5.44375 0.00159854 0 5.38623 0 12C0 18.6122 5.44375 24 12.1469 24H12.1501C17.082 23.992 21.4289 20.9924 23.2927 16.5297H28.7072C30.5695 20.9924 34.918 23.992 39.8499 24H39.8531C46.5562 24 52 18.6122 52 12C52 5.38623 46.5562 0.00319045 39.8531 0.00319045C39.8493 0.00316445 39.8455 0.00316445 39.8417 0.00319045C39.6906 0.00319045 39.5428 0.014335 39.3933 0.0207035C39.3372 0.00898239 39.28 0.00311232 39.2226 0.00319045H12.7774C12.7134 0.00273051 12.6496 0.00967721 12.5872 0.0238876C12.4491 0.0159269 12.311 0.0063741 12.1712 0.00159767C12.1631 0.00147825 12.155 -0.000113023 12.1469 6.39449e-06ZM12.1436 1.59215H12.1469C12.3337 1.59852 12.5206 1.60807 12.7075 1.62399C12.8115 1.63292 12.9164 1.62211 13.0163 1.59215H39.0195C39.1042 1.61433 39.192 1.62293 39.2795 1.61763C39.4712 1.60489 39.6646 1.59534 39.8564 1.59374C45.6723 1.59374 50.375 6.23962 50.375 11.9984C50.375 17.7572 45.6706 22.4063 39.8531 22.4063C35.4006 22.3999 31.4356 19.6248 29.9487 15.4677C29.893 15.3124 29.7894 15.1779 29.6523 15.0826C29.5153 14.9874 29.3514 14.9361 29.1834 14.9359H22.8166C22.6489 14.9365 22.4854 14.9879 22.3486 15.0831C22.2119 15.1783 22.1086 15.3126 22.0529 15.4677C20.5644 19.6248 16.5994 22.3999 12.1469 22.4063C6.32938 22.4063 1.625 17.7572 1.625 11.9984C1.625 6.23962 6.32775 1.59374 12.1436 1.59215ZM39.9149 4.22715C38.3549 4.22715 37.076 5.48972 37.076 7.01977C37.0777 7.75828 37.3769 8.46628 37.9085 8.98982C38.4401 9.51337 39.1611 9.81013 39.9149 9.81558C40.6546 9.79111 41.3556 9.486 41.8701 8.96466C42.3845 8.44332 42.6721 7.74653 42.6721 7.02137C42.6721 6.29621 42.3845 5.59942 41.8701 5.07807C41.3556 4.55673 40.6546 4.25162 39.9149 4.22715ZM39.9149 5.8193C40.5892 5.8193 41.1239 6.34311 41.1239 7.01977C41.1239 7.33436 40.9963 7.63606 40.7693 7.85851C40.5423 8.08095 40.2343 8.20592 39.9132 8.20592C39.5922 8.20592 39.2842 8.08095 39.0572 7.85851C38.8302 7.63606 38.7026 7.33436 38.7026 7.01977C38.7026 6.34311 39.2405 5.8193 39.9149 5.8193ZM11.505 6.21415C11.2901 6.2175 11.0853 6.30417 10.9354 6.45516C10.7856 6.60616 10.7029 6.80918 10.7055 7.01977V11.2023H6.4805C6.26501 11.2023 6.05835 11.2862 5.90598 11.4355C5.7536 11.5848 5.668 11.7873 5.668 11.9984C5.668 12.2095 5.7536 12.412 5.90598 12.5613C6.05835 12.7106 6.26501 12.7945 6.4805 12.7945H10.7055V16.977C10.7055 17.1882 10.7911 17.3907 10.9435 17.54C11.0958 17.6893 11.3025 17.7731 11.518 17.7731C11.7335 17.7731 11.9402 17.6893 12.0925 17.54C12.2449 17.3907 12.3305 17.1882 12.3305 16.977V12.7945H16.5555C16.771 12.7945 16.9777 12.7106 17.13 12.5613C17.2824 12.412 17.368 12.2095 17.368 11.9984C17.368 11.7873 17.2824 11.5848 17.13 11.4355C16.9777 11.2862 16.771 11.2023 16.5555 11.2023H12.3305V7.01977C12.3318 6.91335 12.3113 6.80775 12.2703 6.70921C12.2292 6.61068 12.1684 6.52121 12.0914 6.4461C12.0145 6.37099 11.9229 6.31176 11.8222 6.27192C11.7215 6.23208 11.6136 6.21244 11.505 6.21415ZM22.75 8.78228C22.5345 8.78228 22.3278 8.86615 22.1755 9.01544C22.0231 9.16474 21.9375 9.36722 21.9375 9.57835C21.9375 9.78948 22.0231 9.99197 22.1755 10.1413C22.3278 10.2906 22.5345 10.3744 22.75 10.3744H24.375C24.5905 10.3744 24.7972 10.2906 24.9495 10.1413C25.1019 9.99197 25.1875 9.78948 25.1875 9.57835C25.1875 9.36722 25.1019 9.16474 24.9495 9.01544C24.7972 8.86615 24.5905 8.78228 24.375 8.78228H22.75ZM27.625 8.78228C27.4095 8.78228 27.2028 8.86615 27.0505 9.01544C26.8981 9.16474 26.8125 9.36722 26.8125 9.57835C26.8125 9.78948 26.8981 9.99197 27.0505 10.1413C27.2028 10.2906 27.4095 10.3744 27.625 10.3744H29.25C29.4655 10.3744 29.6722 10.2906 29.8245 10.1413C29.9769 9.99197 30.0625 9.78948 30.0625 9.57835C30.0625 9.36722 29.9769 9.16474 29.8245 9.01544C29.6722 8.86615 29.4655 8.78228 29.25 8.78228H27.625ZM34.8774 9.20579C33.3174 9.20579 32.0401 10.4684 32.0401 11.9984C32.0418 12.7366 32.3408 13.4444 32.872 13.9679C33.4033 14.4914 34.1239 14.7883 34.8774 14.7942C35.6171 14.7697 36.3181 14.4646 36.8326 13.9433C37.347 13.422 37.6346 12.7252 37.6346 12C37.6346 11.2748 37.347 10.5781 36.8326 10.0567C36.3181 9.53537 35.6171 9.23026 34.8774 9.20579ZM44.9524 9.20579C44.1986 9.21124 43.4776 9.508 42.946 10.0315C42.4144 10.5551 42.1152 11.2631 42.1135 12.0016C42.1135 13.5301 43.3908 14.7942 44.9507 14.7942C46.5107 14.7942 47.788 13.5316 47.788 12.0016C47.7863 11.2634 47.4874 10.5556 46.9561 10.0321C46.4248 9.50861 45.7058 9.21166 44.9524 9.20579ZM34.8774 10.7979C35.5517 10.7979 36.0864 11.3217 36.0864 11.9984C36.0864 12.313 35.9588 12.6147 35.7318 12.8371C35.5048 13.0596 35.1968 13.1846 34.8757 13.1846C34.5547 13.1846 34.2467 13.0596 34.0197 12.8371C33.7927 12.6147 33.6651 12.313 33.6651 11.9984C33.6651 11.3217 34.2014 10.7979 34.8774 10.7979ZM44.9524 10.7979C45.6268 10.7979 46.163 11.3233 46.163 12.0016C46.163 12.6767 45.6268 13.2021 44.9507 13.2021C44.7903 13.2027 44.6313 13.172 44.483 13.1118C44.3348 13.0515 44.2003 12.9629 44.0875 12.8511C43.9746 12.7394 43.8856 12.6067 43.8257 12.4608C43.7658 12.3149 43.7361 12.1588 43.7385 12.0016C43.7385 11.3249 44.2764 10.7979 44.9524 10.7979ZM39.9149 14.1844C38.3549 14.1844 37.076 15.4454 37.076 16.977C37.0781 17.7153 37.3775 18.4229 37.909 18.9461C38.4406 19.4693 39.1614 19.7658 39.9149 19.7713C41.4749 19.7713 42.7489 18.5071 42.7489 16.977C42.7489 15.4454 41.4749 14.1844 39.9149 14.1844ZM39.9149 15.7766C40.5892 15.7766 41.1239 16.3004 41.1239 16.977C41.1239 17.2916 40.9963 17.5933 40.7693 17.8158C40.5423 18.0382 40.2343 18.1632 39.9132 18.1632C39.5922 18.1632 39.2842 18.0382 39.0572 17.8158C38.8302 17.5933 38.7026 17.2916 38.7026 16.977C38.7026 16.3004 39.2405 15.7766 39.9149 15.7766Z"/>
</svg>
