<svg width="28" height="28" viewBox="0 0 28 28" xmlns="http://www.w3.org/2000/svg">
<path id="Vector" d="M25.8564 8.06501L24.23 6.72647V2.30677C24.2436 2.14419 24.2237 1.98052 24.1714 1.82612C24.1191 1.67173 24.0357 1.52997 23.9263 1.40982C23.8169 1.28968 23.684 1.19376 23.536 1.12815C23.388 1.06254 23.2281 1.02866 23.0664 1.02866C22.9048 1.02866 22.7449 1.06254 22.5969 1.12815C22.4489 1.19376 22.316 1.28968 22.2066 1.40982C22.0972 1.52997 22.0137 1.67173 21.9615 1.82612C21.9092 1.98052 21.8892 2.14419 21.9029 2.30677V4.77339L17.6908 1.33022C16.648 0.469951 15.3426 0 13.9958 0C12.649 0 11.3436 0.469951 10.3009 1.33022L2.13524 8.06501C1.46758 8.61177 0.929379 9.30217 0.559956 10.0858C0.190532 10.8694 -0.000778364 11.7264 2.38008e-06 12.5942V22.1071C2.38008e-06 23.67 0.615133 25.1689 1.71007 26.274C2.80501 27.3791 4.29007 28 5.83855 28H22.1615C23.7099 28 25.195 27.3791 26.2899 26.274C27.3849 25.1689 28 23.67 28 22.1071V12.5605C27.9948 11.6977 27.7998 10.8469 27.4291 10.0694C27.0584 9.29199 26.5212 8.60736 25.8564 8.06501ZM10.501 25.6007V17.4516C10.5449 16.5448 10.9327 15.6898 11.5841 15.0637C12.2355 14.4376 13.1005 14.0883 14 14.0883C14.8995 14.0883 15.7645 14.4376 16.4159 15.0637C17.0673 15.6898 17.4551 16.5448 17.499 17.4516V25.6007H10.501ZM25.6729 22.0734C25.6707 23.0082 25.3018 23.9041 24.6469 24.5651C23.992 25.2262 23.1043 25.5985 22.1781 25.6007H19.8344V17.4516C19.8344 15.8887 19.2192 14.3898 18.1243 13.2847C17.0294 12.1796 15.5443 11.5587 13.9958 11.5587C12.4474 11.5587 10.9623 12.1796 9.86736 13.2847C8.77242 14.3898 8.15728 15.8887 8.15728 17.4516V25.6007H5.82187C4.89422 25.6007 4.00445 25.2294 3.34773 24.5681C2.691 23.9068 2.32095 23.0097 2.31874 22.0734V12.5605C2.31819 12.0368 2.43317 11.5196 2.65535 11.0463C2.87753 10.5731 3.20132 10.1557 3.60322 9.82448L11.7688 3.08969C12.3941 2.57844 13.1744 2.29947 13.9791 2.29947C14.7839 2.29947 15.5642 2.57844 16.1895 3.08969L24.3551 9.82448C24.7631 10.1524 25.0932 10.5683 25.3213 11.0417C25.5493 11.5151 25.6695 12.0341 25.6729 12.5605V22.0734Z"/>
</svg>
