<svg width="40" height="40" viewBox="0 0 40 40" fill="none" xmlns="http://www.w3.org/2000/svg">
<g id="Iconsax/Linear/message2">
<path id="Vector" d="M14.1668 17.4998H25.8335M11.6668 30.7165H18.3335L25.7502 35.6498C26.0005 35.8166 26.2914 35.9124 26.5918 35.9269C26.8923 35.9414 27.1911 35.874 27.4562 35.732C27.7214 35.59 27.9431 35.3787 28.0976 35.1206C28.2521 34.8625 28.3336 34.5673 28.3335 34.2665V30.7165C33.3335 30.7165 36.6668 27.3831 36.6668 22.3831V12.3831C36.6668 7.38314 33.3335 4.0498 28.3335 4.0498H11.6668C6.66683 4.0498 3.3335 7.38314 3.3335 12.3831V22.3831C3.3335 27.3831 6.66683 30.7165 11.6668 30.7165Z" stroke="#FFBC39" stroke-width="2" stroke-miterlimit="10" stroke-linecap="round" stroke-linejoin="round"/>
</g>
</svg>
