<svg width="55" height="55" viewBox="0 0 55 55" fill="none" xmlns="http://www.w3.org/2000/svg">
<g id="Iconsax/Linear/musicsquaresearch">
<path id="Vector" d="M36.7974 41H31.15C23.9 41 21 38.1 21 30.85V22.15C21 14.9 23.9 12 31.15 12H39.85C47.1 12 50 14.9 50 22.15V27.7974" stroke="#FFBC39" stroke-width="2" stroke-linecap="round" stroke-linejoin="round"/>
<path id="Vector_2" d="M34.6437 29.2039C34.6437 29.9455 34.3464 30.6567 33.8172 31.181C33.288 31.7054 32.5703 32 31.8219 32C31.0735 32 30.3557 31.7054 29.8265 31.181C29.2973 30.6567 29 29.9455 29 29.2039C29 28.4623 29.2973 27.7511 29.8265 27.2267C30.3557 26.7024 31.0735 26.4078 31.8219 26.4078C32.5703 26.4078 33.288 26.7024 33.8172 27.2267C34.3464 27.7511 34.6437 28.4623 34.6437 29.2039ZM34.6437 29.2039V19.4175M36.5062 18.0963L39.6243 19.1239C40.3792 19.3756 41 20.2214 41 21.0113V21.8292C41 22.8987 40.1675 23.4928 39.1446 23.1573L36.0265 22.1297C35.2716 21.8781 34.6508 21.0323 34.6508 20.2424V19.4175C34.6437 18.355 35.4832 17.7538 36.5062 18.0963Z" stroke="#FFBC39" stroke-width="2" stroke-linecap="round" stroke-linejoin="round"/>
<rect id="Rectangle 48" x="40" y="31" width="10" height="10" rx="2" stroke="#FFBC39" stroke-width="2"/>
<path id="Vector_3" d="M45 33V39M45 39L48 37M45 39L42 37" stroke="#FFBC39" stroke-width="1.5" stroke-linecap="round" stroke-linejoin="round"/>
</g>
</svg>
